<?xml version="1.0"?>
<svg version="1.1" xmlns="http://www.w3.org/2000/svg" width="200px" height="200px" style="border: dashed 2px #aaa"><path fill="#66fcf1" d="M53.4,124l0-3.4l3-1.2l0-18.8l-3-1.2l0-3.4l10.32-0.2l6,13.32l6.28-13.12l9.6-0.2l0,3.6l-2.88,1.2l0,18.8l3,1.2l0,3.4l-11.92,0l0-3.4l3.12-1.2l0-15.04l-1.08,2.64l-4.52,9.4l-4.32,0.2l-4.6-9.48l-0.68-2.08l0,14.36l3.08,1.2l0,3.4l-11.4,0z M96.4604,115.32l0.6,3.36s1.6,0.84,3.92,0.84c2.56,0,4.84-1.12,4.84-3.24c0-4.68-13.52-2.6-13.52-12.48c0-5.52,4.36-8.48,10.16-8.48c4.52,0,8.8,1.6,8.8,1.6l-0.2,7.28l-3.68,0l-1-3.4s-1.8-0.6-3.52-0.6c-2.84,0-4.24,1.24-4.24,2.84c0,4.64,13.48,2.8,13.48,12.2c0,6-4.64,9.28-10.8,9.28c-4.52,0-8.92-1.52-8.92-1.52l0-7.68l4.08,0z M118.2808,124l0-3.4l3-1.2l0-18.8l-3-1.2l0-3.4l9.2-0.2l3.8,0c6.12,0,9.72,3.2,9.72,8.4c0,6.72-4.12,10-11.4,10l-2.12,0l0,5.2l3,1.2l0,3.4l-12.2,0z M127.4808,109.52l2.12,0c3.32,0,5.2-1.56,5.2-4.52c0-2.6-1.4-4.4-4.12-4.4l-3.2,0l0,8.92z"/><path fill="#1a1a1d" d=""/></svg>
