<?xml version="1.0"?>
<svg version="1.1" xmlns="http://www.w3.org/2000/svg" width="400px" height="300px" style="border: dashed 2px #aaa"><path fill="#" d="M18.95,252l0-14.45l12.75-5.1l0-79.9l-12.75-5.1l0-14.45l43.86-0.85l25.5,56.61l26.69-55.76l40.8-0.85l0,15.3l-12.24,5.1l0,79.9l12.75,5.1l0,14.45l-50.66,0l0-14.45l13.26-5.1l0-63.92l-4.59,11.22l-19.21,39.95l-18.36,0.85l-19.55-40.29l-2.89-8.84l0,61.03l13.09,5.1l0,14.45l-48.45,0z M201.9567,215.11l2.55,14.28s6.8,3.57,16.66,3.57c10.88,0,20.57-4.76,20.57-13.77c0-19.89-57.46-11.05-57.46-53.04c0-23.46,18.53-36.04,43.18-36.04c19.21,0,37.4,6.8,37.4,6.8l-0.85,30.94l-15.64,0l-4.25-14.45s-7.65-2.55-14.96-2.55c-12.07,0-18.02,5.27-18.02,12.07c0,19.72,57.29,11.9,57.29,51.85c0,25.5-19.72,39.44-45.9,39.44c-19.21,0-37.91-6.46-37.91-6.46l0-32.64l17.34,0z M294.6934,252l0-14.45l12.75-5.1l0-79.9l-12.75-5.1l0-14.45l39.1-0.85l16.15,0c26.01,0,41.31,13.6,41.31,35.7c0,28.56-17.51,42.5-48.45,42.5l-9.01,0l0,22.1l12.75,5.1l0,14.45l-51.85,0z M333.7934,190.46l9.01,0c14.11,0,22.1-6.63,22.1-19.21c0-11.05-5.95-18.7-17.51-18.7l-13.6,0l0,37.91z"/><path fill="#" d=""/></svg>
